<?xml version="1.0" encoding="utf-8"?>
<!DOCTYPE svg PUBLIC "-//W3C//DTD SVG 1.1//EN" "http://www.w3.org/Graphics/SVG/1.1/DTD/svg11.dtd">
<svg version="1.1" id="Layer_1" xmlns="http://www.w3.org/2000/svg" xmlns:xlink="http://www.w3.org/1999/xlink" x="0px" y="0px"
	 width="350px" height="333.334px" viewBox="0 0 350 333.334" enable-background="new 0 0 350 333.334" xml:space="preserve">
<polyline fill="none" stroke="#000000" stroke-width="1.7008" stroke-miterlimit="10" points="145.552,172.725 145.552,172.725
	288.423,279.379 "/>
<polyline fill="none" stroke="#000000" stroke-width="1.7008" stroke-miterlimit="10" points="118.257,320.357 118.257,320.357
	175.14,12.682 "/>
<polyline fill="none" stroke="#000000" stroke-width="1.7008" stroke-miterlimit="10" points="175.14,12.682 175.14,12.682
	13.386,130.203 "/>
<polyline fill="none" stroke="#000000" stroke-width="1.7008" stroke-miterlimit="10" points="156.448,207.799 156.448,207.799
	302.034,104.879 "/>
<polyline fill="none" stroke="#000000" stroke-width="1.7008" stroke-miterlimit="10" points="288.423,279.379 288.423,279.379
	13.386,130.203 "/>
<polyline fill="none" stroke="#000000" stroke-width="1.7008" stroke-miterlimit="10" points="13.386,130.203 13.386,130.203
	75.169,320.357 "/>
<polyline fill="none" stroke="#000000" stroke-width="1.7008" stroke-miterlimit="10" points="193.175,208.273 193.175,208.273
	140.282,38.008 "/>
<polyline fill="none" stroke="#000000" stroke-width="1.7008" stroke-miterlimit="10" points="302.034,104.879 302.034,104.879
	75.169,320.357 "/>
<polyline fill="none" stroke="#000000" stroke-width="1.7008" stroke-miterlimit="10" points="75.169,320.357 75.169,320.357
	275.11,320.357 "/>
<polyline fill="none" stroke="#000000" stroke-width="1.7008" stroke-miterlimit="10" points="204.979,173.492 204.979,173.492
	26.7,171.184 "/>
<polyline fill="none" stroke="#000000" stroke-width="1.7008" stroke-miterlimit="10" points="140.282,38.008 140.282,38.008
	275.11,320.357 "/>
<polyline fill="none" stroke="#000000" stroke-width="1.7008" stroke-miterlimit="10" points="275.11,320.357 275.11,320.357
	336.892,130.203 "/>
<polyline fill="none" stroke="#000000" stroke-width="1.7008" stroke-miterlimit="10" points="175.544,151.52 175.544,151.52
	118.257,320.357 "/>
<polyline fill="none" stroke="#000000" stroke-width="1.7008" stroke-miterlimit="10" points="26.7,171.184 26.7,171.184
	336.892,130.203 "/>
<polyline fill="none" stroke="#000000" stroke-width="1.7008" stroke-miterlimit="10" points="336.892,130.203 336.892,130.203
	175.14,12.682 "/>
<path fill="#F7931E" stroke="#000000" stroke-width="0.75" d="M145.552,166.343L145.552,166.343h-0.011
	c-1.691,0.005-3.312,0.679-4.507,1.875c-1.192,1.197-1.863,2.818-1.86,4.511c0.001,1.69,0.674,3.311,1.869,4.504
	c1.195,1.195,2.816,1.868,4.509,1.868c1.69,0,3.312-0.673,4.507-1.868c1.197-1.193,1.869-2.813,1.869-4.504
	c0.003-1.692-0.668-3.313-1.86-4.511c-1.193-1.196-2.815-1.87-4.504-1.875H145.552z"/>
<path fill="#F7931E" stroke="#000000" stroke-width="0.75" d="M118.257,313.981L118.257,313.981h-0.012
	c-1.689,0.003-3.311,0.677-4.505,1.872c-1.192,1.198-1.863,2.821-1.863,4.512c0.003,1.689,0.676,3.311,1.871,4.506
	c1.196,1.195,2.818,1.866,4.509,1.866c1.688,0,3.311-0.671,4.509-1.866c1.195-1.195,1.867-2.816,1.869-4.506
	c0-1.69-0.668-3.313-1.863-4.512c-1.192-1.195-2.812-1.869-4.505-1.872H118.257z"/>
<path fill="#F7931E" stroke="#000000" stroke-width="0.75" d="M175.14,6.306L175.14,6.306h-0.012
	c-1.689,0.004-3.311,0.677-4.505,1.872c-1.195,1.2-1.863,2.821-1.863,4.509c0.003,1.692,0.676,3.313,1.871,4.509
	c1.196,1.195,2.818,1.866,4.509,1.866c1.688,0,3.311-0.671,4.509-1.866c1.195-1.195,1.867-2.817,1.869-4.509
	c0-1.688-0.668-3.309-1.863-4.509c-1.192-1.195-2.814-1.868-4.505-1.872H175.14z"/>
<path fill="#F7931E" stroke="#000000" stroke-width="0.75" d="M156.448,201.423L156.448,201.423h-0.012
	c-1.689,0.003-3.311,0.677-4.505,1.872c-1.192,1.198-1.863,2.821-1.863,4.509c0.003,1.692,0.676,3.313,1.872,4.509
	c1.195,1.195,2.817,1.866,4.508,1.866c1.691,0,3.311-0.671,4.509-1.866c1.195-1.195,1.867-2.816,1.869-4.509
	c0-1.688-0.668-3.311-1.863-4.509c-1.192-1.195-2.812-1.869-4.505-1.872H156.448z"/>
<path fill="#F7931E" stroke="#000000" stroke-width="0.75" d="M288.423,273.001L288.423,273.001h-0.009
	c-1.692,0.005-3.313,0.677-4.505,1.875c-1.195,1.197-1.867,2.818-1.863,4.511c0,1.688,0.673,3.309,1.868,4.504
	s2.817,1.868,4.509,1.868s3.313-0.673,4.509-1.868s1.868-2.815,1.868-4.504c0.004-1.692-0.668-3.313-1.859-4.511
	c-1.195-1.198-2.816-1.87-4.504-1.875H288.423z"/>
<path fill="#F7931E" stroke="#000000" stroke-width="0.75" d="M13.385,123.827L13.385,123.827h-0.012
	c-1.692,0.001-3.311,0.677-4.504,1.872c-1.195,1.199-1.865,2.821-1.863,4.51c0.003,1.69,0.675,3.312,1.871,4.508
	s2.817,1.864,4.509,1.864c1.689,0,3.311-0.669,4.506-1.864c1.198-1.195,1.871-2.817,1.871-4.508c0.001-1.688-0.668-3.311-1.862-4.51
	c-1.192-1.195-2.814-1.871-4.504-1.872H13.385z"/>
<path fill="#F7931E" stroke="#000000" stroke-width="0.75" d="M193.175,201.897L193.175,201.897h-0.012
	c-1.688,0.001-3.309,0.677-4.504,1.872c-1.192,1.199-1.863,2.821-1.86,4.51c0,1.69,0.673,3.312,1.869,4.508
	c1.195,1.195,2.817,1.864,4.507,1.864c1.692,0,3.312-0.669,4.508-1.864s1.867-2.817,1.872-4.508c0-1.688-0.668-3.311-1.863-4.51
	c-1.195-1.195-2.813-1.871-4.506-1.872H193.175z"/>
<path fill="#F7931E" stroke="#000000" stroke-width="0.75" d="M302.035,98.501L302.035,98.501h-0.009
	c-1.692,0.001-3.313,0.678-4.505,1.873c-1.195,1.197-1.863,2.82-1.863,4.509c0,1.692,0.673,3.313,1.868,4.509
	c1.199,1.194,2.821,1.863,4.509,1.863c1.691,0,3.313-0.669,4.509-1.863c1.195-1.195,1.867-2.816,1.872-4.509
	c0-1.688-0.673-3.312-1.863-4.509c-1.195-1.195-2.817-1.872-4.505-1.873H302.035z"/>
<path fill="#F7931E" stroke="#000000" stroke-width="0.75" d="M75.169,313.981L75.169,313.981h-0.01
	c-1.69,0.003-3.312,0.677-4.505,1.872c-1.195,1.198-1.863,2.821-1.863,4.512c0.002,1.689,0.674,3.311,1.869,4.506
	c1.198,1.195,2.82,1.866,4.509,1.866c1.69,0,3.312-0.671,4.509-1.866c1.195-1.195,1.868-2.816,1.871-4.506
	c0-1.69-0.668-3.313-1.863-4.512c-1.194-1.195-2.815-1.869-4.505-1.872H75.169z"/>
<path fill="#F7931E" stroke="#000000" stroke-width="0.75" d="M204.979,167.114L204.979,167.114h-0.014
	c-1.691,0.003-3.309,0.677-4.504,1.873c-1.194,1.197-1.865,2.82-1.862,4.509c0.001,1.692,0.674,3.313,1.87,4.509
	c1.195,1.194,2.817,1.863,4.51,1.863c1.688,0,3.309-0.669,4.504-1.863c1.199-1.195,1.872-2.816,1.872-4.509
	c0-1.688-0.668-3.312-1.863-4.509c-1.19-1.196-2.812-1.87-4.505-1.873H204.979z"/>
<path fill="#F7931E" stroke="#000000" stroke-width="0.75" d="M140.282,31.63L140.282,31.63h-0.012
	c-1.692,0.005-3.311,0.677-4.504,1.875c-1.195,1.197-1.865,2.818-1.863,4.511c0.003,1.688,0.675,3.309,1.871,4.504
	s2.817,1.868,4.509,1.868c1.689,0,3.311-0.673,4.506-1.868c1.198-1.195,1.871-2.815,1.871-4.504
	c0.001-1.692-0.668-3.313-1.862-4.511c-1.192-1.198-2.814-1.87-4.504-1.875H140.282z"/>
<path fill="#F7931E" stroke="#000000" stroke-width="0.75" d="M275.109,313.981L275.109,313.981h-0.013
	c-1.688,0.003-3.31,0.677-4.505,1.872c-1.195,1.198-1.863,2.821-1.863,4.512c0.005,1.689,0.677,3.311,1.872,4.506
	s2.817,1.866,4.509,1.866c1.688,0,3.31-0.671,4.509-1.866c1.195-1.195,1.868-2.816,1.868-4.506c0-1.69-0.668-3.313-1.863-4.512
	c-1.191-1.195-2.812-1.869-4.505-1.872H275.109z"/>
<path fill="#F7931E" stroke="#000000" stroke-width="0.75" d="M175.544,145.143L175.544,145.143h-0.012
	c-1.689,0-3.311,0.677-4.505,1.872c-1.192,1.197-1.863,2.82-1.863,4.509c0.003,1.692,0.676,3.313,1.872,4.509
	c1.195,1.194,2.817,1.863,4.508,1.863c1.691,0,3.311-0.669,4.509-1.863c1.195-1.195,1.867-2.817,1.869-4.509
	c0-1.689-0.668-3.312-1.863-4.509c-1.192-1.195-2.812-1.872-4.505-1.872H175.544z"/>
<path fill="#F7931E" stroke="#000000" stroke-width="0.75" d="M26.7,164.806L26.7,164.806h-0.014
	c-1.688,0.001-3.309,0.677-4.504,1.873c-1.192,1.197-1.863,2.82-1.86,4.509c0.001,1.692,0.674,3.313,1.869,4.508
	c1.195,1.195,2.816,1.864,4.509,1.864c1.69,0,3.312-0.669,4.507-1.864c1.195-1.194,1.869-2.815,1.869-4.508
	c0.003-1.688-0.668-3.312-1.86-4.509c-1.195-1.196-2.815-1.872-4.504-1.873H26.7z"/>
<path fill="#F7931E" stroke="#000000" stroke-width="0.75" d="M336.893,123.827L336.893,123.827h-0.009
	c-1.692,0.001-3.313,0.677-4.505,1.872c-1.195,1.199-1.863,2.821-1.863,4.51c0,1.69,0.673,3.312,1.872,4.508
	c1.195,1.195,2.817,1.864,4.505,1.864c1.691,0,3.313-0.669,4.509-1.864s1.867-2.817,1.872-4.508c0-1.688-0.668-3.311-1.863-4.51
	c-1.195-1.195-2.812-1.871-4.505-1.872H336.893z"/>
</svg>
